<mxfile host="app.diagrams.net" modified="2023-05-04T10:39:17.876Z" agent="Mozilla/5.0 (Windows NT 10.0; Win64; x64) AppleWebKit/537.36 (KHTML, like Gecko) Chrome/112.0.0.0 Safari/537.36 Edg/112.0.1722.64" version="21.2.7" etag="vkX0xJ7R6QWOCkOJUqXK" type="device">
  <diagram id="OTNz3g_jp76tpuq5HObz" name="Page-1">
    <mxGraphModel dx="512" dy="328" grid="1" gridSize="10" guides="1" tooltips="1" connect="1" arrows="1" fold="1" page="1" pageScale="1" pageWidth="850" pageHeight="1100" math="0" shadow="0">
      <root>
        <mxCell id="0" />
        <mxCell id="1" parent="0" />
        <mxCell id="NG4zbmlIl-eOi8FtSkIF-1" value="SqliteDAO" style="swimlane;whiteSpace=wrap;html=1;" vertex="1" parent="1">
          <mxGeometry x="250" y="30" width="200" height="380" as="geometry" />
        </mxCell>
        <mxCell id="NG4zbmlIl-eOi8FtSkIF-2" value="+&amp;nbsp;__dbLocation:&amp;nbsp;&lt;br&gt;+&amp;nbsp;__logger:&lt;br&gt;+&amp;nbsp;__conn:&lt;br&gt;+&amp;nbsp;__cursor:" style="text;html=1;strokeColor=none;fillColor=none;align=left;verticalAlign=top;whiteSpace=wrap;rounded=0;horizontal=1;" vertex="1" parent="NG4zbmlIl-eOi8FtSkIF-1">
          <mxGeometry y="20" width="200" height="80" as="geometry" />
        </mxCell>
        <mxCell id="NG4zbmlIl-eOi8FtSkIF-3" value="+ __init__(self,&amp;nbsp;dbLocation=None&lt;span style=&quot;background-color: initial;&quot;&gt;): void&lt;/span&gt;&lt;br&gt;+&amp;nbsp;__connect__(self): void&lt;br&gt;+&amp;nbsp;__do__(self, params):void&lt;br&gt;+ __close__(self):void&lt;br&gt;+&amp;nbsp;createTable(self, tableName, col):void&lt;br&gt;+&amp;nbsp;insertOneRecord(self, tableName, colValues): void&lt;br&gt;+&amp;nbsp;listAllTables(self): void&lt;br&gt;+&amp;nbsp;listAllColumns(self, tableName):void&lt;br&gt;+&amp;nbsp;listAllValues(self, tableName): void&lt;br&gt;+&amp;nbsp;updateOneRecord(self, tableName, new, condition): void&lt;br&gt;+&amp;nbsp;deleteOneRecord(self, tableName, condition): void" style="text;html=1;strokeColor=none;fillColor=none;align=left;verticalAlign=top;whiteSpace=wrap;rounded=0;horizontal=1;" vertex="1" parent="NG4zbmlIl-eOi8FtSkIF-1">
          <mxGeometry y="100" width="200" height="260" as="geometry" />
        </mxCell>
        <mxCell id="NG4zbmlIl-eOi8FtSkIF-4" value="" style="endArrow=none;html=1;rounded=0;exitX=0;exitY=1;exitDx=0;exitDy=0;entryX=1;entryY=1;entryDx=0;entryDy=0;" edge="1" parent="NG4zbmlIl-eOi8FtSkIF-1" source="NG4zbmlIl-eOi8FtSkIF-2" target="NG4zbmlIl-eOi8FtSkIF-2">
          <mxGeometry width="50" height="50" relative="1" as="geometry">
            <mxPoint x="110" y="140" as="sourcePoint" />
            <mxPoint x="160" y="90" as="targetPoint" />
            <Array as="points" />
          </mxGeometry>
        </mxCell>
      </root>
    </mxGraphModel>
  </diagram>
</mxfile>
